<?xml version="1.0" encoding="utf-8"?>
<!-- Generator: Adobe Illustrator 27.0.1, SVG Export Plug-In . SVG Version: 6.00 Build 0)  -->
<svg version="1.1" xmlns="http://www.w3.org/2000/svg" xmlns:xlink="http://www.w3.org/1999/xlink" x="0px" y="0px"
	 viewBox="0 0 1511 509.7" style="enable-background:new 0 0 1511 509.7;" xml:space="preserve">
<style type="text/css">
	.st0{fill:url(#SVGID_1_);}
	.st1{fill:url(#SVGID_00000052821120954441308960000012006749516947201722_);}
	.st2{fill:url(#SVGID_00000073723055124527444640000005723994965028573854_);}
	.st3{fill:url(#SVGID_00000026131761425818201270000004220719835130401673_);}
	.st4{fill:url(#SVGID_00000112590424639600215560000015676781739046833051_);}
	.st5{fill:#AA0515;}
	.st6{fill:#F10E19;}
	.st7{fill:#71035C;}
	.st8{fill:#6D001D;}
	.st9{fill:#6B1903;}
	.st10{fill:#90070F;}
	.st11{fill:#C40032;}
	.st12{fill:#E90D17;}
	.st13{fill:#7A0114;}
	.st14{fill:#974DEC;}
	.st15{fill:#B046E6;}
	.st16{fill:#DA2888;}
	.st17{fill:#F5325C;}
	.st18{fill:#B972F6;}
	.st19{fill:#F66174;}
	.st20{fill:#EC0934;}
	.st21{fill:#FD6C93;}
	.st22{fill:#F93B61;}
	.st23{fill:#F6254C;}
	.st24{fill:#F8552C;}
	.st25{fill:#560114;}
	.st26{fill:#ED60D0;}
	.st27{fill:#AEB4AA;}
	.st28{fill:#041148;}
	.st29{fill:#130332;}
	.st30{fill:#311560;}
	.st31{fill:#FB88B3;}
	.st32{fill:#FE8966;}
	.st33{fill:#FC700F;}
	.st34{fill:#EC3440;}
	.st35{fill:#EC365E;}
	.st36{fill:#E60040;}
	.st37{fill:#E885EF;}
	.st38{fill:#E30052;}
	.st39{fill:#F20F16;}
	.st40{fill:#2AA3FE;}
	.st41{fill:#F689F4;}
	.st42{fill:#FC3514;}
	.st43{fill:#FC6264;}
	.st44{fill:#F76A95;}
	.st45{fill:#FFA739;}
	.st46{fill:#FF6916;}
	.st47{fill:#F74730;}
	.st48{fill:#FF811A;}
	.st49{fill:#FD1D1D;}
	.st50{fill:#FBAB64;}
	.st51{fill:#FD8465;}
	.st52{fill:#DB0064;}
	.st53{fill:#EB24B3;}
	.st54{fill:#FF583E;}
	.st55{fill:#FD792E;}
	.st56{fill:#F783CE;}
	.st57{fill:#FB78A0;}
	.st58{fill:#B81F21;}
	.st59{fill:#FA2811;}
	.st60{fill:#F3A6F4;}
	.st61{fill:#F377D9;}
	.st62{fill:#E586EE;}
	.st63{fill:#EF77E5;}
	.st64{fill:#D95AF2;}
</style>
<g id="Background">
	<linearGradient id="SVGID_1_" gradientUnits="userSpaceOnUse" x1="390.9642" y1="509.7118" x2="390.9642" y2="-9.094947e-13">
		<stop  offset="0" style="stop-color:#FCC7BF"/>
		<stop  offset="0.5519" style="stop-color:#FFA856"/>
	</linearGradient>
	<polygon class="st0" points="114.1,0 -2.8,0 -2.8,509.7 784.7,509.7 	"/>
	
		<linearGradient id="SVGID_00000160160649788785208790000009577773788229751188_" gradientUnits="userSpaceOnUse" x1="1016.1537" y1="300.675" x2="414.8037" y2="-300.675">
		<stop  offset="0" style="stop-color:#FCC7BF"/>
		<stop  offset="1" style="stop-color:#FEB279"/>
		<stop  offset="1" style="stop-color:#FEAE6C"/>
		<stop  offset="1" style="stop-color:#FFA856"/>
	</linearGradient>
	<polygon style="fill:url(#SVGID_00000160160649788785208790000009577773788229751188_);" points="954.9,0 114.1,0 461,265.8 
		1316.8,0 	"/>
	
		<linearGradient id="SVGID_00000090272582561733157310000009602413376327799943_" gradientUnits="userSpaceOnUse" x1="698.1761" y1="463.2831" x2="1053.4468" y2="-152.0636">
		<stop  offset="0" style="stop-color:#FCC7BF"/>
		<stop  offset="0.5454" style="stop-color:#FFA856"/>
	</linearGradient>
	<polygon style="fill:url(#SVGID_00000090272582561733157310000009602413376327799943_);" points="1316.8,0 983,259.6 691.8,459.6 
		461,265.8 	"/>
	
		<linearGradient id="SVGID_00000119078111718333565420000000955025577442490037_" gradientUnits="userSpaceOnUse" x1="1365.1224" y1="27.8824" x2="1002.6452" y2="655.7113">
		<stop  offset="0" style="stop-color:#FCC7BF"/>
		<stop  offset="0.852" style="stop-color:#FFA856"/>
	</linearGradient>
	<polygon style="fill:url(#SVGID_00000119078111718333565420000000955025577442490037_);" points="1316.8,0 1511,509.7 749.8,509.7 
		691.8,459.6 	"/>
	
		<linearGradient id="SVGID_00000052087326180764003370000007000954321794609835_" gradientUnits="userSpaceOnUse" x1="1548.5217" y1="21.6816" x2="1327.8101" y2="403.9654">
		<stop  offset="0" style="stop-color:#FCC7BF"/>
		<stop  offset="0.852" style="stop-color:#FFA856"/>
	</linearGradient>
	<polygon style="fill:url(#SVGID_00000052087326180764003370000007000954321794609835_);" points="1316.8,0 1511,0 1511,509.7 
		1319.2,6.2 	"/>
</g>
<g id="Wing">
	<polygon class="st5" points="1386,392.1 1379.4,380.6 1366.3,380.3 	"/>
	<polygon class="st6" points="1391.4,378.7 1386,392.1 1379.4,380.7 	"/>
	<polygon class="st7" points="1366.3,380.3 1375.5,406.6 1386,392.1 	"/>
	<polygon class="st8" points="1386,392.1 1385.1,414.6 1375.5,406.6 	"/>
	<polygon class="st9" points="1386,392.1 1385.1,414.6 1394.3,409.6 	"/>
	<path class="st10" d="M1386,392.1l8.3,17.5l2.8-3.9c0.3-0.6,0.6-1.2,0.8-1.8l2.7-7.4l3.3-11.1L1386,392.1z"/>
	<polygon class="st11" points="1391.4,378.7 1386,392.1 1403.9,385.4 	"/>
	<polyline class="st12" points="1365.6,363.5 1365.6,363.5 1391.4,378.7 1379.4,380.7 1365.6,363.5 	"/>
	<polygon class="st13" points="1366.3,380.4 1365.6,363.5 1379.4,380.7 	"/>
</g>
<g id="Head">
	<polyline class="st14" points="1403.9,385.4 1404.5,385.8 1413.2,384.3 1409.4,368.9 1403.9,385.4 	"/>
	<polygon class="st15" points="1409.4,368.9 1412.7,372.1 1416.3,373.5 1418.6,384.3 1413.2,384.3 	"/>
	<polygon class="st16" points="1417.2,373.6 1425.4,374.3 1426.3,372.5 1422.6,363.5 	"/>
	<polygon class="st17" points="1416.3,366.2 1409.4,368.9 1411.7,371.1 1412.7,372.1 1416.3,373.5 	"/>
	<polygon class="st18" points="1425.4,374.3 1419.8,384.4 1418.6,384.3 1416.3,373.5 	"/>
	<polygon class="st19" points="1422.6,363.5 1417.2,373.6 1416.3,373.5 1416.3,366.2 1422.6,362.7 	"/>
	<polyline class="st20" points="1416.3,366.2 1415.1,358.5 1414.5,360.2 1409.4,368.9 1416.3,366.2 	"/>
	<polygon class="st21" points="1415.1,358.5 1413.6,359.1 1411.5,360.6 1410.8,362.2 1409.7,366.2 1409.4,368.9 1414.5,360.2 	"/>
	<polyline class="st22" points="1416.3,366.2 1422.6,362.7 1420.3,360.7 1416.9,358.2 1416,357.8 1415.1,358.5 1416.3,366.2 	"/>
	<polyline class="st23" points="1422.6,362.7 1423.7,360.2 1424.3,357.2 1417.8,357.5 1416,357.8 1418.8,359.6 1422.6,362.7 	"/>
	<polygon class="st24" points="1424.3,357.2 1426.3,357.2 1428.9,357.9 1432.8,359.1 1432.2,359.5 1430.1,359.7 1427.9,360.2 
		1427.3,360.8 1427,360.5 1426.5,360.2 1426,360 1425,360 1425,360 1424.2,360.2 1423.5,361 1422.6,362.7 1423.7,360.2 
		1423.9,359.1 	"/>
	<polyline class="st25" points="1422.6,363.5 1426.3,372.5 1427.7,366.4 1428.2,365.4 1431.4,363.5 1432.8,362.7 1433.5,362.1 
		1433.9,362 1434.2,362 1434.6,362.3 1435.4,361.8 1434.6,360.9 1434.5,360.1 1434.5,359.7 1434.3,358.8 1432.8,359.1 1432.2,359.5 
		1430.1,359.7 1427.9,360.2 1427.3,360.8 1427.2,362 1426.2,363.2 1424.9,363.7 1423.6,363.7 1422.6,363.5 1422.6,363.5 	"/>
	<polyline class="st26" points="1426.3,372.5 1425.4,374.3 1428.8,375.5 1431.4,369.9 1433.5,365 1434.6,362.3 1434.2,362 
		1433.9,362 1433.5,362.1 1432.8,362.7 1428.2,365.4 1427.7,366.4 1426.3,372.5 1425.4,374.3 	"/>
	<polygon class="st27" points="1422.9,362.7 1423.3,362.2 1423.6,361.5 1423.9,361.1 1424.3,360.6 1424.8,360.2 1425.1,359.9 
		1424.2,360.2 1423.7,360.8 1423.5,361 1423.1,361.8 1422.6,362.7 1422.6,363.5 1423,363.6 1423.6,363.7 1423,363.4 1422.9,363 	"/>
	<polyline class="st27" points="1422.8,363.2 1422.9,363.2 1422.9,363.2 	"/>
	<polyline class="st27" points="1427,360.5 1427,361.2 1426.8,361.9 1426.7,362.6 1427.2,362 1427.3,360.8 1427,360.5 	"/>
	<polygon class="st28" points="1424.8,360.1 1425,360 1425.4,360 1426,360 1426.3,360.1 1426.8,360.3 1427,360.5 1427,361.2 
		1426.7,362.6 1426.2,363.2 1424.9,363.7 1423.6,363.7 1423,363.4 1422.9,363 1422.9,362.7 1423.9,361.1 1424.3,360.6 	"/>
	<path class="st28" d="M1425,360"/>
	<polyline class="st29" points="1434.3,358.8 1442.3,355.8 1448,353.8 1455.5,351.5 1460,350.3 1463.2,349.9 1464.6,349.8 
		1465.4,350.1 1465.5,350.6 1464.7,350.8 1457.8,352.3 1453.3,353.5 1447.9,355.1 1442.1,357.1 1439.5,358.4 1434.8,361.2 
		1434.6,360.9 1434.3,358.8 	"/>
	<polyline class="st30" points="1434.8,361.2 1435.4,361.8 1438.1,360.2 1441.6,358.4 1447.4,355.7 1451.2,354.1 1447.9,355.1 
		1442.1,357.1 1439.4,358.5 1438,359.3 1434.8,361.2 	"/>
</g>
<g id="Body">
	<polyline class="st31" points="1394,411 1394.3,409.6 1402.2,404 1403.4,418.4 1394,411 	"/>
	<polygon class="st32" points="1402.2,404 1406.2,401.4 1405.5,408.9 1404.8,413.4 1403.8,418.2 1403.4,418.4 	"/>
	<polyline class="st33" points="1403.9,385.4 1404.5,385.8 1405.1,387.8 1406.2,401.4 1402.2,404 1394.3,409.6 1397.1,405.7 
		1400.7,396.1 1403.9,385.4 	"/>
	<polygon class="st34" points="1404.5,385.8 1406.2,401.4 1410.3,398.8 	"/>
	<path class="st35" d="M1408.1,406.2"/>
	<polygon class="st35" points="1406.2,401.4 1410.3,398.8 1412.3,412.4 1411.6,413.4 1403.8,418.2 1405.7,407.5 	"/>
	<polyline class="st36" points="1412.7,412 1412.3,412.4 1410.3,398.8 1415.6,390.1 1419,401.7 1412.7,412 	"/>
	<polyline class="st37" points="1412.7,412 1414.8,417 1416.4,414.1 1421.2,399.8 1420.7,398.8 1413.3,411 1412.7,412 	"/>
	<polygon class="st38" points="1413.2,384.3 1415.6,390.1 1419,401.6 1420.7,398.8 1418.6,384.3 	"/>
	<polygon class="st39" points="1404.5,385.8 1413.2,384.3 1415.6,390.1 1410.3,398.8 	"/>
	<polygon class="st40" points="1418.6,384.3 1419.8,384.3 1425.4,374.3 1422.9,384.5 1422,389.2 1421.2,395.3 1421.7,398.5 
		1421.2,399.8 1420.7,398.8 	"/>
	<polygon class="st41" points="1421.7,398.5 1428.8,375.5 1425.4,374.3 1423,384 1422,389.2 1421.5,393.3 1421.2,395.3 	"/>
</g>
<g id="Tail">
	<polygon class="st33" points="1366.2,456.8 1375.3,452.7 1376.6,450.6 1383,432.4 1382.2,432 	"/>
	<polygon class="st42" points="1383,432.4 1376.6,450.6 1378.5,463.3 1382.7,449.6 1385.9,434.5 	"/>
	<polygon class="st43" points="1385.9,434.5 1382,451.8 1386.1,455.4 1386.9,450.8 1386.9,443.4 1387.9,437.3 	"/>
	<polygon class="st44" points="1382,451.8 1378.5,463.3 1378.7,464.6 1382.7,466.6 1384.1,464.9 1386.1,455.4 	"/>
	<polygon class="st32" points="1376.6,450.6 1369.1,470 1378.7,464.6 	"/>
	<polygon class="st33" points="1382.7,466.6 1378.7,464.6 1376.6,465.7 1375.9,478.3 	"/>
	<polygon class="st45" points="1392.2,441.7 1387,450.8 1384.1,465 1386,464 1390.8,453.4 1392.2,450.7 1392.8,446 	"/>
	<polygon class="st46" points="1387.1,442.1 1386.6,445.4 1386.9,450.8 1392.2,441.7 	"/>
	<polygon class="st47" points="1387.7,438.5 1387.1,442.1 1392.2,441.7 	"/>
	<polygon class="st48" points="1390.8,453.4 1390.4,468.1 1394.4,451 	"/>
	<polygon class="st49" points="1390.8,453.4 1392.2,450.7 1392.8,446 1392.2,441.7 1397.3,441.7 1394.4,451 	"/>
	<polygon class="st50" points="1395.3,448.1 1392.9,467.2 1392.4,469.7 1391.7,469.9 1390.4,468.1 1394.4,450.8 1394.6,450.4 	"/>
	<polygon class="st51" points="1392.6,468.7 1396.1,459.9 1399.2,443.9 1399.5,439.8 1397.3,441.7 1395.3,448.1 	"/>
	<polyline class="st52" points="1382.2,432 1383,432.4 1385.9,434.5 1387.4,421.7 1382.2,432 	"/>
	<polygon class="st53" points="1387.4,421.7 1389.2,417.7 1391.3,424.3 1391.2,426.2 1390.1,429.5 1387,425.4 	"/>
	<polygon class="st54" points="1387,425.4 1385.9,434.5 1387.9,437.3 1390.1,429.5 	"/>
	<polyline class="st55" points="1387.7,438.5 1387.9,437.3 1390.1,429.5 1392.2,441.7 1387.7,438.5 1387.7,438.5 1387.9,437.3 	"/>
	<polygon class="st56" points="1390.1,429.5 1392.2,441.7 1392.2,426.1 1391.2,426.2 	"/>
	<polygon class="st57" points="1392.2,426.6 1401.7,435.1 1399.5,439.8 1397.3,441.7 1392.2,441.7 	"/>
	<polyline class="st58" points="1401.5,435.6 1402,434.6 1392.2,426.1 1392.2,426.6 	"/>
	<polyline class="st59" points="1390.1,411.9 1390.4,413.7 1389.2,417.7 1391.3,424.3 1394.3,409.6 1390.1,411.9 	"/>
	<polygon class="st60" points="1394,411 1403.4,418.4 1392.2,426.1 1391.2,426.2 1391.3,424.3 1391.8,421.9 	"/>
	<polygon class="st61" points="1403.4,418.4 1392.2,426.1 1402,434.6 	"/>
	<polygon class="st62" points="1403.4,418.4 1402.2,432.4 1409.4,420.6 	"/>
	<polygon class="st63" points="1402.2,432.4 1402,434.6 1410.3,422 1414.8,417 1412.7,412 1411.6,413.4 1410.1,419.3 	"/>
	<polygon class="st64" points="1403.4,418.4 1409.4,420.6 1410.1,419.3 1411.6,413.4 	"/>
</g>
</svg>
